<!DOCTYPE svg PUBLIC "-//W3C//DTD SVG 20010904//EN" "http://www.w3.org/TR/2001/REC-SVG-20010904/DTD/svg10.dtd">
<svg version="1.0" xmlns="http://www.w3.org/2000/svg" width="145px" height="111px" viewBox="0 0 1450 1110" preserveAspectRatio="xMidYMid meet">
<g id="layer101" fill="#c6c6c6" stroke="none">
 <path d="M66 1008 c-20 -29 -20 -77 0 -106 12 -18 24 -22 52 -20 19 2 37 9 40 16 3 9 -3 11 -20 7 -30 -7 -45 4 -53 37 -9 34 23 69 56 61 16 -4 20 -2 17 8 -2 8 -21 15 -40 17 -28 2 -40 -2 -52 -20z"/>
 <path d="M180 950 c0 -64 3 -80 15 -80 10 0 15 10 15 28 0 24 4 27 33 27 32 0 32 1 35 53 2 42 0 52 -12 52 -12 0 -16 -11 -16 -46 0 -38 -3 -45 -17 -42 -13 2 -19 15 -21 46 -2 28 -8 42 -18 42 -11 0 -14 -17 -14 -80z"/>
 <path d="M320 1015 c-16 -19 -16 -60 0 -80 7 -8 28 -15 46 -15 43 0 62 36 42 78 -16 32 -67 42 -88 17z m60 -24 c13 -25 3 -51 -20 -51 -21 0 -31 30 -18 54 12 21 25 20 38 -3z"/>
 <path d="M443 1004 c-15 -24 -15 -29 -2 -53 16 -29 61 -40 85 -20 17 14 19 70 2 87 -22 22 -66 14 -85 -14z m65 -32 c3 -26 0 -32 -17 -32 -24 0 -37 35 -20 56 18 22 34 12 37 -24z"/>
 <path d="M567 1024 c-14 -14 -7 -21 18 -16 32 6 32 -7 -1 -33 -39 -31 -14 -69 39 -57 27 6 20 22 -10 22 l-28 0 29 23 c37 30 33 61 -9 65 -17 2 -34 0 -38 -4z"/>
 <path d="M672 1018 c-16 -16 -16 -70 0 -86 7 -7 24 -12 38 -12 30 0 50 17 50 42 0 14 -8 18 -36 18 -45 0 -42 24 4 28 18 2 30 8 27 13 -9 13 -69 11 -83 -3z m58 -68 c0 -5 -6 -10 -14 -10 -8 0 -18 5 -21 10 -3 6 3 10 14 10 12 0 21 -4 21 -10z"/>
 <path d="M840 955 l0 -75 38 0 c41 0 56 7 64 30 10 27 -10 58 -41 65 -24 5 -31 12 -31 31 0 15 -6 24 -15 24 -12 0 -15 -15 -15 -75z m65 -30 c0 -11 -8 -21 -17 -23 -14 -3 -18 3 -18 23 0 20 4 26 18 23 9 -2 17 -12 17 -23z"/>
 <path d="M970 950 c0 -64 3 -80 15 -80 9 0 15 9 15 25 0 21 5 25 29 25 33 0 41 14 41 71 0 28 -4 39 -15 39 -10 0 -15 -10 -15 -32 0 -18 -4 -39 -9 -47 -15 -23 -31 -2 -31 40 0 28 -4 39 -15 39 -12 0 -15 -16 -15 -80z"/>
 <path d="M1098 1005 c-19 -41 0 -79 40 -83 41 -4 62 12 62 49 0 58 -79 85 -102 34z m67 -30 c0 -23 -4 -30 -20 -30 -21 0 -31 25 -21 51 11 28 41 12 41 -21z"/>
 <path d="M1237 1023 c-4 -3 -7 -23 -7 -44 0 -20 -6 -40 -12 -43 -10 -5 -10 -7 0 -12 6 -3 12 -12 12 -20 0 -8 7 -14 15 -14 8 0 15 7 15 15 0 8 7 15 15 15 8 0 15 5 15 10 0 6 -7 10 -15 10 -10 0 -15 10 -15 30 0 18 6 33 15 36 8 4 15 10 15 15 0 10 -43 12 -53 2z"/>
 <path d="M1308 1005 c-19 -41 0 -79 40 -83 41 -4 62 12 62 49 0 58 -79 85 -102 34z m67 -30 c0 -23 -4 -30 -20 -30 -21 0 -31 25 -21 51 11 28 41 12 41 -21z"/>
 <path d="M364 716 l-34 -34 0 -210 c0 -116 4 -222 10 -236 17 -46 53 -60 177 -65 7 -1 19 -16 27 -35 24 -59 45 -66 186 -66 141 0 158 6 188 67 17 35 19 36 81 40 71 3 107 21 121 59 6 14 10 120 10 236 l0 210 -34 34 -34 34 -332 0 -332 0 -34 -34z m453 -93 c78 -36 120 -142 88 -219 -32 -78 -97 -124 -175 -124 -78 0 -143 46 -175 124 -32 76 10 181 86 219 44 21 131 22 176 0z"/>
 <path d="M674 564 c-43 -21 -68 -67 -61 -116 18 -135 216 -135 234 0 13 94 -85 160 -173 116z"/>
 </g>

</svg>